<svg xmlns="http://www.w3.org/2000/svg"  viewBox="0 0 100 100" width="100px" height="100px"><path fill="#00ab9b" d="M68.571,80H31.429C25.143,80,20,74.857,20,68.571V31.429C20,25.143,25.143,20,31.429,20h37.143 C74.857,20,80,25.143,80,31.429v37.143C80,74.857,74.857,80,68.571,80z"/><path fill="#a0d2a1" d="M80,59.8c-2.31,4.56-7.05,7.7-12.5,7.7c-5.96,0-12.06-3.74-14.07-9h-6.86c-2.01,5.26-8.11,9-14.07,9 c-5.45,0-10.19-3.14-12.5-7.7l0.01-18.63c0.66-1.28,1.5-2.45,2.49-3.47c0.19-2.79,0.89-7.2,3-7.2c1.67,0,2.03,2.9,3,4 c0.05-1.48,0.02-8,3-8c4,0,7,14,18.5,14s14.5-14,18.5-14c2.98,0,2.95,6.52,3,8c0.97-1.1,1.33-4,3-4c2.11,0,2.81,4.41,3,7.2 c0.99,1.02,1.83,2.19,2.49,3.47L80,59.8z"/><path fill="#fefdef" d="M67.5,62.5L67.5,62.5c-4.971,0-9-4.029-9-9v-6c0-4.971,4.029-9,9-9h0c4.971,0,9,4.029,9,9v6 C76.5,58.471,72.471,62.5,67.5,62.5z"/><path fill="#fefdef" d="M33.5,62.5L33.5,62.5c-4.971,0-9-4.029-9-9v-6c0-4.971,4.029-9,9-9h0c4.971,0,9,4.029,9,9v6 C42.5,58.471,38.471,62.5,33.5,62.5z"/><path fill="#1f212b" d="M68.571,81H31.429C24.575,81,19,75.424,19,68.571V31.429C19,24.576,24.575,19,31.429,19h37.143 C75.425,19,81,24.576,81,31.429v37.143C81,75.424,75.425,81,68.571,81z M31.429,21C25.679,21,21,25.678,21,31.429v37.143 C21,74.322,25.679,79,31.429,79h37.143C74.321,79,79,74.322,79,68.571V31.429C79,25.678,74.321,21,68.571,21H31.429z"/><path fill="#1f212b" d="M27.48,41.31c-0.137,0-0.272-0.056-0.371-0.166c-0.186-0.205-0.169-0.521,0.036-0.706 c0.935-0.842,2.007-1.48,3.188-1.897c0.255-0.09,0.546,0.044,0.638,0.305c0.092,0.26-0.045,0.546-0.306,0.638 c-1.056,0.373-2.015,0.944-2.851,1.697C27.72,41.267,27.6,41.31,27.48,41.31z"/><path fill="#1f212b" d="M33.5,63c-5.238,0-9.5-4.262-9.5-9.5v-6c0-1.784,0.497-3.522,1.438-5.028 c0.146-0.234,0.457-0.304,0.688-0.159c0.234,0.146,0.306,0.455,0.159,0.689C25.444,44.348,25,45.904,25,47.5v6 c0,4.687,3.813,8.5,8.5,8.5s8.5-3.813,8.5-8.5v-6c0-4.687-3.813-8.5-8.5-8.5c-0.276,0-0.5-0.224-0.5-0.5s0.224-0.5,0.5-0.5 c5.238,0,9.5,4.262,9.5,9.5v6C43,58.738,38.738,63,33.5,63z"/><ellipse cx="50" cy="62.5" fill="#f5905f" rx="4.5" ry="4"/><path fill="#1f212b" d="M50,67c-2.757,0-5-2.019-5-4.5s2.243-4.5,5-4.5s5,2.019,5,4.5S52.757,67,50,67z M50,59 c-2.206,0-4,1.57-4,3.5s1.794,3.5,4,3.5s4-1.57,4-3.5S52.206,59,50,59z"/><path fill="#444445" d="M70.5,48v5c0,2.49-2.01,4.5-4.5,4.5s-4.5-2.01-4.5-4.5v-3.5c1.66,0,3-1.34,3-3 c0-0.89-0.39-1.7-1.01-2.24c0.72-0.48,1.58-0.76,2.51-0.76c1.24,0,2.37,0.5,3.18,1.32C70,45.63,70.5,46.76,70.5,48z"/><path fill="#444445" d="M39.5,48v5c0,2.49-2.01,4.5-4.5,4.5s-4.5-2.01-4.5-4.5v-3.5c1.66,0,3-1.34,3-3 c0-0.89-0.39-1.7-1.01-2.24c0.72-0.48,1.58-0.76,2.51-0.76c1.24,0,2.37,0.5,3.18,1.32C39,45.63,39.5,46.76,39.5,48z"/><path fill="#1f212b" d="M56.522,39.227c-0.17,0-0.337-0.087-0.431-0.245c-0.141-0.238-0.062-0.544,0.176-0.685 c0.646-0.383,1.29-0.84,1.912-1.359c0.211-0.177,0.526-0.149,0.704,0.063c0.177,0.212,0.148,0.527-0.063,0.704 c-0.663,0.554-1.351,1.042-2.043,1.452C56.697,39.204,56.609,39.227,56.522,39.227z"/><path fill="#1f212b" d="M25.437,66.082c-0.087,0-0.174-0.022-0.253-0.069c-2.418-1.42-4.364-3.49-5.63-5.987 c-0.035-0.07-0.054-0.148-0.054-0.227l0.01-18.63c0-0.08,0.02-0.158,0.056-0.229c0.655-1.271,1.479-2.433,2.448-3.457 C22.228,34.605,22.965,30,25.5,30c1.4,0,2.021,1.401,2.566,2.65C28.221,29.983,28.807,26,31.5,26c1.744,0,3.152,2.014,4.934,4.564 C39.216,34.546,43.026,40,50,40c1.487,0,2.916-0.249,4.246-0.739c0.257-0.095,0.546,0.037,0.642,0.296 c0.096,0.259-0.037,0.546-0.296,0.642C53.151,40.73,51.606,41,50,41c-7.494,0-11.478-5.701-14.386-9.863 C34.063,28.917,32.724,27,31.5,27c-1.533,0-2.371,2.418-2.491,7.188L29,34.517c-0.007,0.205-0.139,0.385-0.331,0.454 c-0.194,0.067-0.408,0.014-0.544-0.14c-0.393-0.445-0.67-1.081-0.963-1.753C26.632,31.861,26.201,31,25.5,31 c-1.24,0-2.222,2.644-2.501,6.734c-0.008,0.118-0.058,0.229-0.141,0.314c-0.929,0.957-1.719,2.048-2.349,3.244L20.5,59.679 c1.18,2.278,2.972,4.168,5.189,5.471c0.238,0.14,0.318,0.446,0.178,0.685C25.774,65.993,25.607,66.082,25.437,66.082z"/><path fill="#1f212b" d="M67.5,68c-6.129,0-12.253-3.847-14.408-9h-6.184c-2.155,5.153-8.279,9-14.408,9 c-1.019,0-2.036-0.107-3.025-0.318c-0.27-0.058-0.442-0.323-0.385-0.593c0.059-0.271,0.329-0.442,0.594-0.384 C30.604,66.9,31.552,67,32.5,67c5.863,0,11.712-3.731,13.604-8.679C46.178,58.128,46.363,58,46.57,58h6.859 c0.207,0,0.393,0.128,0.467,0.321C55.788,63.269,61.637,67,67.5,67c5.076,0,9.663-2.802,12-7.321l-0.01-18.387 c-0.63-1.196-1.42-2.287-2.349-3.244c-0.083-0.084-0.133-0.196-0.141-0.314C76.722,33.644,75.74,31,74.5,31 c-0.701,0-1.132,0.861-1.662,2.078c-0.293,0.672-0.57,1.308-0.963,1.753c-0.135,0.154-0.349,0.209-0.544,0.14 c-0.192-0.069-0.324-0.249-0.331-0.454l-0.009-0.329C70.871,29.418,70.033,27,68.5,27c-1.224,0-2.563,1.917-4.114,4.137 c-1.005,1.439-2.146,3.07-3.514,4.581c-0.186,0.207-0.502,0.22-0.706,0.035c-0.204-0.186-0.22-0.501-0.034-0.706 c1.325-1.464,2.446-3.067,3.435-4.482C65.349,28.014,66.756,26,68.5,26c2.693,0,3.279,3.983,3.434,6.65 C72.479,31.401,73.1,30,74.5,30c2.535,0,3.272,4.605,3.486,7.484c0.97,1.024,1.793,2.186,2.448,3.457 c0.036,0.071,0.056,0.149,0.056,0.229l0.01,18.63c0,0.079-0.019,0.156-0.054,0.227C77.955,64.944,72.994,68,67.5,68z"/><path fill="#1f212b" d="M66,58c-2.757,0-5-2.243-5-5v-3.5c0-0.276,0.224-0.5,0.5-0.5c1.379,0,2.5-1.122,2.5-2.5 c0-0.72-0.306-1.399-0.838-1.863c-0.118-0.102-0.181-0.253-0.171-0.409c0.01-0.155,0.092-0.297,0.222-0.384 C64.041,43.292,65.005,43,66,43c1.345,0,2.601,0.521,3.535,1.468C70.479,45.399,71,46.655,71,48v5C71,55.757,68.757,58,66,58z M62,49.964V53c0,2.206,1.794,4,4,4s4-1.794,4-4v-5c0-1.075-0.416-2.078-1.172-2.824c-1.166-1.181-3.044-1.498-4.541-0.793 C64.746,44.981,65,45.724,65,46.5C65,48.26,63.694,49.721,62,49.964z"/><path fill="#1f212b" d="M67.5,63c-5.238,0-9.5-4.262-9.5-9.5v-6c0-5.238,4.262-9.5,9.5-9.5c3.827,0,7.263,2.277,8.754,5.802 C76.749,44.974,77,46.219,77,47.5v6C77,58.738,72.738,63,67.5,63z M67.5,39c-4.687,0-8.5,3.813-8.5,8.5v6 c0,4.687,3.813,8.5,8.5,8.5s8.5-3.813,8.5-8.5v-6c0-1.147-0.225-2.26-0.668-3.309C73.999,41.038,70.924,39,67.5,39z"/><path fill="#1f212b" d="M35,58c-2.757,0-5-2.243-5-5v-3.5c0-0.276,0.224-0.5,0.5-0.5c1.379,0,2.5-1.122,2.5-2.5 c0-0.72-0.306-1.399-0.838-1.863c-0.118-0.102-0.181-0.253-0.171-0.409c0.01-0.155,0.092-0.297,0.222-0.384 C33.041,43.292,34.005,43,35,43c1.345,0,2.601,0.521,3.535,1.468C39.479,45.399,40,46.655,40,48v5C40,55.757,37.757,58,35,58z M31,49.964V53c0,2.206,1.794,4,4,4s4-1.794,4-4v-5c0-1.075-0.416-2.078-1.172-2.824c-1.166-1.181-3.045-1.498-4.541-0.793 C33.746,44.981,34,45.724,34,46.5C34,48.26,32.694,49.721,31,49.964z"/><path fill="#f9b621" d="M50,62.5l-6.5-1c0-3.866,3.149-7,6.5-7h0c3.351,0,6.5,3.134,6.5,7L50,62.5z"/><path fill="#1f212b" d="M50,63c-0.025,0-0.051-0.002-0.076-0.006l-6.5-1C43.18,61.957,43,61.747,43,61.5 c0-3.995,3.271-7.5,7-7.5s7,3.505,7,7.5c0,0.247-0.18,0.457-0.424,0.494l-6.5,1C50.051,62.998,50.025,63,50,63z M44.015,61.073 L50,61.994l5.985-0.921C55.768,57.792,53.064,55,50,55S44.232,57.792,44.015,61.073z"/></svg>